# Blender 4.1.1
# www.blender.org
mtllib flashlight low polly.mtl
o Cylinder
v 0.000000 0.160000 -2.400000
v 0.000000 0.160000 0.900000
v 0.137766 0.132597 -2.400000
v 0.137766 0.132597 0.900000
v 0.254558 0.054558 -2.400000
v 0.254558 0.054559 0.900000
v 0.332597 -0.062234 -2.400000
v 0.332597 -0.062234 0.900000
v 0.360000 -0.200000 -2.400000
v 0.360000 -0.200000 0.900000
v 0.332597 -0.337766 -2.400000
v 0.332597 -0.337766 0.900000
v 0.254558 -0.454559 -2.400000
v 0.254558 -0.454558 0.900000
v 0.137766 -0.532597 -2.400000
v 0.137766 -0.532597 0.900000
v 0.000000 -0.560000 -2.400000
v 0.000000 -0.560000 0.900000
v -0.137766 -0.532597 -2.400000
v -0.137766 -0.532597 0.900000
v -0.254558 -0.454559 -2.400000
v -0.254558 -0.454558 0.900000
v -0.332597 -0.337766 -2.400000
v -0.332597 -0.337766 0.900000
v -0.360000 -0.200000 -2.400000
v -0.360000 -0.200000 0.900000
v -0.332597 -0.062234 -2.400000
v -0.332597 -0.062234 0.900000
v -0.254558 0.054558 -2.400000
v -0.254558 0.054559 0.900000
v -0.137766 0.132597 -2.400000
v -0.137766 0.132597 0.900000
v 0.234202 0.365414 1.700000
v 0.000000 0.412000 1.700000
v 0.432749 0.232749 1.700000
v 0.565414 0.034202 1.700000
v 0.612000 -0.200000 1.700000
v 0.565414 -0.434202 1.700000
v 0.432749 -0.632749 1.700000
v 0.234202 -0.765414 1.700000
v 0.000000 -0.812000 1.700000
v -0.234202 -0.765414 1.700000
v -0.432749 -0.632749 1.700000
v -0.565414 -0.434202 1.700000
v -0.612000 -0.200000 1.700000
v -0.565414 0.034202 1.700000
v -0.432749 0.232749 1.700000
v -0.234202 0.365414 1.700000
v 0.199086 0.280636 2.400000
v 0.000000 0.320237 2.400000
v 0.367863 0.167863 2.400000
v 0.480636 -0.000914 2.400000
v 0.520237 -0.200000 2.400000
v 0.480636 -0.399086 2.400000
v 0.367863 -0.567863 2.400000
v 0.199086 -0.680636 2.400000
v 0.000000 -0.720237 2.400000
v -0.199086 -0.680636 2.400000
v -0.367863 -0.567863 2.400000
v -0.480636 -0.399086 2.400000
v -0.520237 -0.200000 2.400000
v -0.480636 -0.000914 2.400000
v -0.367863 0.167863 2.400000
v -0.199086 0.280636 2.400000
v 0.234202 0.365414 2.400000
v 0.000000 0.412000 2.400000
v 0.432749 0.232750 2.400000
v 0.565414 0.034202 2.400000
v 0.612000 -0.200000 2.400000
v 0.565414 -0.434202 2.400000
v 0.432749 -0.632749 2.400000
v 0.234202 -0.765414 2.400000
v 0.000000 -0.812000 2.400000
v -0.234202 -0.765414 2.400000
v -0.432749 -0.632749 2.400000
v -0.565414 -0.434202 2.400000
v -0.612000 -0.200000 2.400000
v -0.565414 0.034202 2.400000
v -0.432749 0.232750 2.400000
v -0.234202 0.365414 2.400000
v 0.083616 0.001867 1.500000
v -0.000000 0.018500 1.500000
v 0.154503 -0.045497 1.500000
v 0.201867 -0.116384 1.500000
v 0.218500 -0.200000 1.500000
v 0.201867 -0.283616 1.500000
v 0.154503 -0.354502 1.500000
v 0.083616 -0.401867 1.500000
v -0.000000 -0.418499 1.500000
v -0.083616 -0.401867 1.500000
v -0.154503 -0.354502 1.500000
v -0.201867 -0.283616 1.500000
v -0.218500 -0.200000 1.500000
v -0.201867 -0.116384 1.500000
v -0.154503 -0.045497 1.500000
v -0.083616 0.001867 1.500000
v 0.000000 -0.060000 0.530000
v 0.000000 0.180000 0.530000
v 0.077135 -0.060000 0.558075
v 0.077135 0.180000 0.558075
v 0.118177 -0.060000 0.629162
v 0.118177 0.180000 0.629162
v 0.103923 -0.060000 0.710000
v 0.103923 0.180000 0.710000
v 0.041042 -0.060000 0.762763
v 0.041042 0.180000 0.762763
v -0.041042 -0.060000 0.762763
v -0.041042 0.180000 0.762763
v -0.103923 -0.060000 0.710000
v -0.103923 0.180000 0.710000
v -0.118177 -0.060000 0.629162
v -0.118177 0.180000 0.629162
v -0.077135 -0.060000 0.558075
v -0.077135 0.180000 0.558075
vn -0.0000 1.0000 -0.0000
vn 0.3827 0.9239 -0.0000
vn 0.7071 0.7071 -0.0000
vn 0.9239 0.3827 -0.0000
vn 1.0000 -0.0000 -0.0000
vn 0.9239 -0.3827 -0.0000
vn 0.7071 -0.7071 -0.0000
vn 0.3827 -0.9239 -0.0000
vn -0.0000 -1.0000 -0.0000
vn -0.3827 -0.9239 -0.0000
vn -0.7071 -0.7071 -0.0000
vn -0.9239 -0.3827 -0.0000
vn -1.0000 -0.0000 -0.0000
vn -0.9239 0.3827 -0.0000
vn -0.7071 0.7071 -0.0000
vn 0.8812 -0.3650 -0.3004
vn 0.9538 -0.0000 -0.3004
vn -0.3827 0.9239 -0.0000
vn -0.0000 -0.0000 -1.0000
vn -0.6744 -0.6744 -0.3004
vn -0.3650 -0.8812 -0.3004
vn -0.3650 0.8812 -0.3004
vn -0.6744 0.6744 -0.3004
vn 0.8812 0.3650 -0.3004
vn 0.6744 0.6744 -0.3004
vn -0.0000 -0.9538 -0.3004
vn 0.3650 -0.8812 -0.3004
vn 0.3650 0.8812 -0.3004
vn -0.0000 0.9538 -0.3004
vn -0.8812 0.3650 -0.3004
vn -0.9538 -0.0000 -0.3004
vn 0.6744 -0.6744 -0.3004
vn -0.8812 -0.3650 -0.3004
vn -0.3628 0.8760 0.3179
vn -0.6704 0.6704 0.3179
vn -0.0000 -0.0000 1.0000
vn 0.3628 -0.8760 0.3179
vn 0.6704 -0.6704 0.3179
vn -0.0000 0.9481 0.3179
vn -0.3628 -0.8760 0.3179
vn -0.0000 -0.9481 0.3179
vn 0.3628 0.8760 0.3179
vn -0.6704 -0.6704 0.3179
vn 0.6704 0.6704 0.3179
vn -0.8760 -0.3628 0.3179
vn 0.8760 0.3628 0.3179
vn -0.9481 -0.0000 0.3179
vn 0.9481 -0.0000 0.3179
vn -0.8760 0.3628 0.3179
vn 0.8760 -0.3628 0.3179
vn 0.7053 -0.0000 -0.7089
vn 0.8660 -0.0000 -0.5000
vn 0.9848 -0.0000 0.1736
vn 0.6428 -0.0000 0.7660
vn 0.3797 -0.0000 0.9251
vn -0.3797 -0.0000 0.9251
vn -0.6428 -0.0000 0.7660
vn -0.9848 -0.0000 0.1736
vn -0.8660 -0.0000 -0.5000
vn -0.7053 -0.0000 -0.7089
vt 1.000000 0.500000
vt 1.000000 1.000000
vt 0.937500 1.000000
vt 0.937500 0.500000
vt 0.875000 1.000000
vt 0.875000 0.500000
vt 0.812500 1.000000
vt 0.812500 0.500000
vt 0.750000 1.000000
vt 0.750000 0.500000
vt 0.687500 1.000000
vt 0.687500 0.500000
vt 0.625000 1.000000
vt 0.625000 0.500000
vt 0.562500 1.000000
vt 0.562500 0.500000
vt 0.500000 1.000000
vt 0.500000 0.500000
vt 0.437500 1.000000
vt 0.437500 0.500000
vt 0.375000 1.000000
vt 0.375000 0.500000
vt 0.312500 1.000000
vt 0.312500 0.500000
vt 0.250000 1.000000
vt 0.250000 0.500000
vt 0.187500 1.000000
vt 0.187500 0.500000
vt 0.125000 1.000000
vt 0.125000 0.500000
vt 0.062500 1.000000
vt 0.062500 0.500000
vt 0.000000 1.000000
vt 0.000000 0.500000
vt 0.750000 0.490000
vt 0.841844 0.471731
vt 0.919706 0.419706
vt 0.971731 0.341844
vt 0.990000 0.250000
vt 0.971731 0.158156
vt 0.919706 0.080294
vt 0.841844 0.028269
vt 0.750000 0.010000
vt 0.658156 0.028269
vt 0.580294 0.080294
vt 0.528269 0.158156
vt 0.510000 0.250000
vt 0.528269 0.341844
vt 0.580294 0.419706
vt 0.658156 0.471731
vt 0.328073 0.061515
vt 0.394260 0.105740
vt 0.250000 0.454014
vt 0.328073 0.438485
vt 0.341844 0.471731
vt 0.250000 0.490000
vt 0.394260 0.394260
vt 0.419706 0.419706
vt 0.438485 0.328073
vt 0.471731 0.341844
vt 0.454014 0.250000
vt 0.490000 0.250000
vt 0.438485 0.171927
vt 0.471731 0.158156
vt 0.419706 0.080294
vt 0.341844 0.028269
vt 0.250000 0.045986
vt 0.250000 0.010000
vt 0.171927 0.061515
vt 0.158156 0.028269
vt 0.105740 0.105740
vt 0.080294 0.080294
vt 0.061515 0.171927
vt 0.028269 0.158156
vt 0.045986 0.250000
vt 0.010000 0.250000
vt 0.061515 0.328073
vt 0.028269 0.341844
vt 0.105740 0.394260
vt 0.080294 0.419706
vt 0.171927 0.438485
vt 0.158156 0.471731
vt 0.888889 1.000000
vt 0.888889 0.500000
vt 0.777778 1.000000
vt 0.777778 0.500000
vt 0.666667 1.000000
vt 0.666667 0.500000
vt 0.555556 1.000000
vt 0.555556 0.500000
vt 0.444444 1.000000
vt 0.444444 0.500000
vt 0.333333 1.000000
vt 0.333333 0.500000
vt 0.222222 1.000000
vt 0.222222 0.500000
vt 0.404269 0.433851
vt 0.095731 0.433851
vt 0.013646 0.291676
vt 0.042154 0.130000
vt 0.167915 0.024474
vt 0.332085 0.024474
vt 0.457846 0.130000
vt 0.486354 0.291676
vt 0.111111 1.000000
vt 0.111111 0.500000
vt 0.000000 1.000000
vt 0.000000 0.500000
s 1
usemtl Material.001
f 1/1/1 2/2/1 4/3/2 3/4/2
f 3/4/2 4/3/2 6/5/3 5/6/3
f 5/6/3 6/5/3 8/7/4 7/8/4
f 7/8/4 8/7/4 10/9/5 9/10/5
f 9/10/5 10/9/5 12/11/6 11/12/6
f 11/12/6 12/11/6 14/13/7 13/14/7
f 13/14/7 14/13/7 16/15/8 15/16/8
f 15/16/8 16/15/8 18/17/9 17/18/9
f 17/18/9 18/17/9 20/19/10 19/20/10
f 19/20/10 20/19/10 22/21/11 21/22/11
f 21/22/11 22/21/11 24/23/12 23/24/12
f 23/24/12 24/23/12 26/25/13 25/26/13
f 25/26/13 26/25/13 28/27/14 27/28/14
f 27/28/14 28/27/14 30/29/15 29/30/15
f 12/11/16 10/9/17 37/9/17 38/11/16
f 29/30/15 30/29/15 32/31/18 31/32/18
f 31/32/18 32/31/18 2/33/1 1/34/1
f 1/35/19 3/36/19 5/37/19 7/38/19 9/39/19 11/40/19 13/41/19 15/42/19 17/43/19 19/44/19 21/45/19 23/46/19 25/47/19 27/48/19 29/49/19 31/50/19
f 44/23/12 43/21/11 75/21/11 76/23/12
f 22/21/20 20/19/21 42/19/21 43/21/20
f 32/31/22 30/29/23 47/29/23 48/31/22
f 8/7/24 6/5/25 35/5/25 36/7/24
f 18/17/26 16/15/27 40/15/27 41/17/26
f 4/3/28 2/2/29 34/2/29 33/3/28
f 28/27/30 26/25/31 45/25/31 46/27/30
f 14/13/32 12/11/16 38/11/16 39/13/32
f 24/23/33 22/21/20 43/21/20 44/23/33
f 2/33/29 32/31/22 48/31/22 34/33/29
f 10/9/17 8/7/24 36/7/24 37/9/17
f 20/19/21 18/17/26 41/17/26 42/19/21
f 30/29/23 28/27/30 46/27/30 47/29/23
f 6/5/25 4/3/28 33/3/28 35/5/25
f 16/15/27 14/13/32 39/13/32 40/15/27
f 26/25/31 24/23/33 44/23/33 45/25/31
f 37/9/5 36/7/4 68/7/4 69/9/5
f 45/25/13 44/23/12 76/23/12 77/25/13
f 38/11/6 37/9/5 69/9/5 70/11/6
f 46/27/14 45/25/13 77/25/13 78/27/14
f 39/13/7 38/11/6 70/11/6 71/13/7
f 47/29/15 46/27/14 78/27/14 79/29/15
f 40/15/8 39/13/7 71/13/7 72/15/8
f 48/31/18 47/29/15 79/29/15 80/31/18
f 41/17/9 40/15/8 72/15/8 73/17/9
f 33/3/2 34/2/1 66/2/1 65/3/2
f 34/33/1 48/31/18 80/31/18 66/33/1
f 42/19/10 41/17/9 73/17/9 74/19/10
f 35/5/3 33/3/2 65/3/2 67/5/3
f 43/21/11 42/19/10 74/19/10 75/21/11
f 36/7/4 35/5/3 67/5/3 68/7/4
f 50/53/36 49/54/36 65/55/36 66/56/36
f 49/54/36 51/57/36 67/58/36 65/55/36
f 51/57/36 52/59/36 68/60/36 67/58/36
f 52/59/36 53/61/36 69/62/36 68/60/36
f 53/61/36 54/63/36 70/64/36 69/62/36
f 54/63/36 55/52/36 71/65/36 70/64/36
f 55/52/36 56/51/36 72/66/36 71/65/36
f 56/51/36 57/67/36 73/68/36 72/66/36
f 57/67/36 58/69/36 74/70/36 73/68/36
f 58/69/36 59/71/36 75/72/36 74/70/36
f 59/71/36 60/73/36 76/74/36 75/72/36
f 60/73/36 61/75/36 77/76/36 76/74/36
f 61/75/36 62/77/36 78/78/36 77/76/36
f 62/77/36 63/79/36 79/80/36 78/78/36
f 63/79/36 64/81/36 80/82/36 79/80/36
f 64/81/36 50/53/36 66/56/36 80/82/36
f 97/1/19 98/2/19 100/83/51 99/84/51
f 99/84/51 100/83/51 102/85/52 101/86/52
f 101/86/53 102/85/53 104/87/53 103/88/53
f 103/88/54 104/87/54 106/89/55 105/90/55
f 105/90/55 106/89/55 108/91/56 107/92/56
f 107/92/56 108/91/56 110/93/57 109/94/57
f 109/94/58 110/93/58 112/95/58 111/96/58
f 100/97/1 98/56/1 114/98/1 112/99/1 110/100/1 108/101/1 106/102/1 104/103/1 102/104/1
f 111/96/59 112/95/59 114/105/60 113/106/60
f 113/106/60 114/105/60 98/107/19 97/108/19
usemtl Material.002
f 56/51/34 55/52/35 87/52/35 88/51/34
f 64/81/37 63/79/38 95/79/38 96/81/37
f 57/67/39 56/51/34 88/51/34 89/67/39
f 49/54/40 50/53/41 82/53/41 81/54/40
f 50/53/41 64/81/37 96/81/37 82/53/41
f 58/69/42 57/67/39 89/67/39 90/69/42
f 51/57/43 49/54/40 81/54/40 83/57/43
f 59/71/44 58/69/42 90/69/42 91/71/44
f 52/59/45 51/57/43 83/57/43 84/59/45
f 60/73/46 59/71/44 91/71/44 92/73/46
f 53/61/47 52/59/45 84/59/45 85/61/47
f 61/75/48 60/73/46 92/73/46 93/75/48
f 54/63/49 53/61/47 85/61/47 86/63/49
f 62/77/50 61/75/48 93/75/48 94/77/50
f 55/52/35 54/63/49 86/63/49 87/52/35
f 63/79/38 62/77/50 94/77/50 95/79/38
usemtl Material.003
f 81/54/36 82/53/36 96/81/36 95/79/36 94/77/36 93/75/36 92/73/36 91/71/36 90/69/36 89/67/36 88/51/36 87/52/36 86/63/36 85/61/36 84/59/36 83/57/36
